<svg id="Icons" xmlns="http://www.w3.org/2000/svg" viewBox="0 0 512 512"><defs><style>.cls-1{fill:#14a36d;}.cls-2{fill:#15be79;}.cls-3{fill:#6b250c;}.cls-4{fill:#7a2b13;}.cls-5{fill:#dd8c29;}.cls-6{fill:#efb732;}.cls-7{fill:#962a11;}.cls-8{fill:#fff;}.cls-9{fill:#ebd9ea;}.cls-10{fill:#f39e22;}.cls-11{fill:#f9c744;}.cls-12{fill:#c44a1a;}.cls-13{fill:#e52e44;}.cls-14{fill:#fa4654;}.cls-15{fill:#fb626e;}.cls-16{fill:#decee5;}.cls-17{fill:#f4e6f4;}.cls-18{fill:#27e090;}</style></defs><title>019-beer-export</title><circle class="cls-1" cx="256" cy="256" r="255.98"/><path class="cls-2" d="M512,255.76A255.63,255.63,0,0,0,408.56,50.44C295-33.81,134.69-10.08,50.44,103.44a254.76,254.76,0,0,0-49.93,136,76.89,76.89,0,0,1,14.24,6.88c23.84,14.74,42,41.9,69.91,44.44,19.15,1.75,37.29-9.24,51.1-22.62s24.87-29.51,39.4-42.12a112.53,112.53,0,0,1,157.7,10c14.17,15.89,26.53,37.44,47.68,40,28.75,3.44,51.22-31.63,80-28.95,9.3.87,17.72,5.66,26.73,8A54.5,54.5,0,0,0,512,255.76Z"/><path class="cls-3" d="M409.28,233.87v175A21.33,21.33,0,0,1,388,430.2H315.62a21.34,21.34,0,0,1-21.34-21.34v-175a29.26,29.26,0,0,1,22-28.36,14.93,14.93,0,0,0,11.21-13.65l4.2-77.35h-.59a6.48,6.48,0,0,1-6.3-8l4.35-18.72a6.48,6.48,0,0,1,6.3-5h32.65a6.49,6.49,0,0,1,6.31,5l4.35,18.72a6.49,6.49,0,0,1-6.31,8h-.6l4.21,77.35a14.87,14.87,0,0,0,11.21,13.65A29.25,29.25,0,0,1,409.28,233.87Z"/><path class="cls-4" d="M409.28,233.87v175A21.33,21.33,0,0,1,388,430.2H335.73a21.34,21.34,0,0,1-21.32-21.34V240.47a22,22,0,0,1,22-22,14.92,14.92,0,0,0,11.21-13.65L351.81,109v0a.25.25,0,0,0-.25-.24,6.73,6.73,0,0,1-6.56-8.26l4.1-17.63h19a6.49,6.49,0,0,1,6.31,5l4.35,18.72a6.49,6.49,0,0,1-6.31,8h-.6l4.21,77.35a14.87,14.87,0,0,0,11.21,13.65A29.25,29.25,0,0,1,409.28,233.87Z"/><path class="cls-5" d="M381.18,78.82v3.62a5.39,5.39,0,0,1-5.39,5.4h-48a5.4,5.4,0,0,1-5.4-5.4V78.82a5.4,5.4,0,0,1,5.4-5.41h48A5.39,5.39,0,0,1,381.18,78.82Z"/><path class="cls-6" d="M381.18,78.82v3.62a5.39,5.39,0,0,1-5.39,5.4H339.47a5.39,5.39,0,0,1-5.39-5.4V78.82a5.39,5.39,0,0,1,5.39-5.41h36.32A5.39,5.39,0,0,1,381.18,78.82Z"/><ellipse class="cls-7" cx="378.88" cy="219.71" rx="10.72" ry="17.94" transform="translate(-44.39 332.26) rotate(-45)"/><ellipse class="cls-7" cx="396.58" cy="249.53" rx="7.62" ry="12.34" transform="translate(-42.58 86.19) rotate(-11.78)"/><path class="cls-7" d="M314.41,395.55h43.2a6.65,6.65,0,0,1,6.65,6.65v0a6.65,6.65,0,0,1-6.65,6.65h-43.2a0,0,0,0,1,0,0V395.55A0,0,0,0,1,314.41,395.55Z"/><rect class="cls-7" x="373.39" y="395.55" width="24.71" height="13.31" rx="6.65"/><path class="cls-7" d="M367.19,125.57h0a5.57,5.57,0,0,1,5.56,5.27l2.16,39.78a5.57,5.57,0,0,1-5.56,5.88h-2.16a5.57,5.57,0,0,1-5.57-5.57V131.14A5.57,5.57,0,0,1,367.19,125.57Z"/><polygon class="cls-6" points="409.28 277.28 409.28 370.65 294.28 370.65 294.28 277.28 314.41 265.95 351.78 244.92 409.28 277.28"/><polygon class="cls-5" points="314.41 265.95 314.41 370.65 294.28 370.65 294.28 277.28 314.41 265.95"/><path class="cls-8" d="M409.28,298.82H386.42c-5.55-14.88-19-25.37-34.64-25.37s-29.09,10.49-34.64,25.37H294.28v30.5h22.86c5.55,14.87,19,25.36,34.64,25.36s29.09-10.49,34.64-25.36h22.86Z"/><rect class="cls-9" x="294.28" y="298.82" width="20.13" height="30.5"/><ellipse class="cls-10" cx="351.78" cy="314.07" rx="27.09" ry="29.45"/><ellipse class="cls-11" cx="351.78" cy="314.07" rx="20.23" ry="21.98"/><rect class="cls-12" x="340.42" y="301.39" width="22.47" height="5.96" rx="2.98"/><rect class="cls-12" x="333.04" y="312.13" width="37.23" height="5.96" rx="2.98"/><path class="cls-13" d="M284.66,189.75A25.91,25.91,0,0,1,252.9,208a304.3,304.3,0,0,0-79.5-10.17A304.64,304.64,0,0,0,93.73,208a25.88,25.88,0,0,1-13.56-50,355.93,355.93,0,0,1,93.23-12,355.83,355.83,0,0,1,93,12,25.9,25.9,0,0,1,18.23,31.74Z"/><path class="cls-14" d="M283.75,173.51A25.9,25.9,0,0,1,252.9,189a304.3,304.3,0,0,0-79.5-10.17A304.64,304.64,0,0,0,93.73,189a25.84,25.84,0,0,1-30.85-15.49,25.81,25.81,0,0,1,17.29-15.49,355.93,355.93,0,0,1,93.23-12,355.83,355.83,0,0,1,93,12A25.81,25.81,0,0,1,283.75,173.51Z"/><ellipse class="cls-15" cx="208.85" cy="160.69" rx="9.09" ry="18.19" transform="translate(23.06 347.56) rotate(-82.74)"/><ellipse class="cls-15" cx="245.03" cy="165.3" rx="6.7" ry="13.41" transform="translate(50.1 387.48) rotate(-82.74)"/><path class="cls-16" d="M203.32,196.61v58.2a23.83,23.83,0,0,1-23.83,23.83H167.13a23.83,23.83,0,0,1-23.83-23.83v-58.2a3.6,3.6,0,0,1,3.6-3.6h4.82a3.6,3.6,0,0,1,3.57,3.1l7.52,54a10.6,10.6,0,0,0,21,0l7.52-54a3.6,3.6,0,0,1,3.57-3.1h4.82A3.6,3.6,0,0,1,203.32,196.61Z"/><path class="cls-17" d="M203.32,203v51.84a23.83,23.83,0,0,1-23.83,23.83H167.13a23.83,23.83,0,0,1-23.83-23.83V203h1.63c2.36,0,4.36,1.32,4.68,3.1l9.9,54a10.18,10.18,0,0,0,4.65,6.54,16.73,16.73,0,0,0,9.15,2.6c7,0,12.84-3.89,13.8-9.14l9.9-54c.32-1.78,2.32-3.1,4.68-3.1Z"/><path class="cls-16" d="M187.82,415.71a14.51,14.51,0,0,1-14.51,14.49c-.29,0-.57,0-.85,0a14.5,14.5,0,0,1-13.63-15.35l8.3-136.18h12.36l.43,6.95,7.87,129.23C187.81,415.12,187.82,415.42,187.82,415.71Z"/><path class="cls-17" d="M187.82,415.71a14.52,14.52,0,0,1-15.35,14.47h0a14.38,14.38,0,0,1-2.16-7.86l2.27-129.19a7.68,7.68,0,0,1,7.35-7.53h0l7.87,129.23C187.81,415.12,187.82,415.42,187.82,415.71Z"/><ellipse class="cls-8" cx="179.4" cy="369.71" rx="4.64" ry="14.37" transform="translate(-13.41 6.81) rotate(-2.1)"/><ellipse class="cls-8" cx="180.36" cy="395.94" rx="3.28" ry="8.83" transform="translate(-14.37 6.87) rotate(-2.1)"/><path class="cls-18" d="M113.89,137.57a3.79,3.79,0,0,1-3.78-3.79c0-8.3,8.59-11.88,16.18-15,5.66-2.36,11.52-4.8,11.52-8.06S132,105,126.29,102.59c-7.59-3.17-16.18-6.75-16.18-15.06s8.59-11.89,16.18-15c5.66-2.37,11.52-4.82,11.52-8.08a3.79,3.79,0,0,1,7.57,0c0,8.3-8.6,11.89-16.18,15.06-5.66,2.36-11.52,4.81-11.52,8.07s5.85,5.71,11.52,8.08c7.58,3.16,16.18,6.75,16.18,15.06s-8.6,11.88-16.18,15c-5.67,2.36-11.52,4.81-11.52,8.06A3.79,3.79,0,0,1,113.89,137.57Z"/><path class="cls-18" d="M169.46,132.57a3.79,3.79,0,0,1-3.78-3.79c0-8.3,8.59-11.88,16.17-15,5.67-2.36,11.53-4.8,11.53-8.06s-5.86-5.71-11.53-8.08c-7.58-3.17-16.17-6.75-16.17-15.06s8.59-11.89,16.17-15c5.67-2.37,11.53-4.82,11.53-8.08a3.79,3.79,0,0,1,7.57,0c0,8.3-8.6,11.89-16.18,15.06-5.67,2.36-11.53,4.81-11.53,8.07s5.86,5.71,11.53,8.08c7.58,3.16,16.18,6.75,16.18,15.06s-8.6,11.88-16.18,15c-5.67,2.36-11.53,4.81-11.53,8.06A3.79,3.79,0,0,1,169.46,132.57Z"/><path class="cls-18" d="M225,137.57a3.79,3.79,0,0,1-3.79-3.79c0-8.3,8.6-11.88,16.18-15,5.67-2.36,11.53-4.8,11.53-8.06s-5.86-5.71-11.53-8.08c-7.58-3.17-16.18-6.75-16.18-15.06s8.6-11.89,16.18-15C243.09,70.11,249,67.66,249,64.4a3.78,3.78,0,0,1,7.56,0c0,8.3-8.59,11.89-16.17,15.06-5.67,2.36-11.53,4.81-11.53,8.07s5.86,5.71,11.53,8.08c7.58,3.16,16.17,6.75,16.17,15.06s-8.59,11.88-16.17,15c-5.67,2.36-11.53,4.81-11.53,8.06A3.79,3.79,0,0,1,225,137.57Z"/></svg>